<svg width="31" height="30" viewBox="0 0 31 30" fill="none" xmlns="http://www.w3.org/2000/svg">
  <path d="M23.801 7.253a19.402 19.402 0 0 0-4.823-1.504 13.54 13.54 0 0 0-.617 1.277 18.061 18.061 0 0 0-5.194 0 12.79 12.79 0 0 0-.624-1.277 19.395 19.395 0 0 0-4.827 1.508C4.661 11.767 3.84 16.162 4.25 20.496a19.54 19.54 0 0 0 5.92 2.983c.48-.654.91-1.35 1.28-2.078a12.663 12.663 0 0 1-2.015-.983c.17-.123.337-.25.499-.382 3.886 1.775 8.097 1.775 11.938 0 .164.134.33.261.5.382-.645.376-1.32.706-2.018.985.37.727.8 1.422 1.281 2.074a19.486 19.486 0 0 0 5.924-2.981c.481-5.025-.822-9.38-3.758-13.243ZM12.313 17.83c-1.162 0-2.116-1.06-2.116-2.364 0-1.303.933-2.364 2.116-2.364 1.192 0 2.135 1.07 2.115 2.364 0 1.304-.933 2.364-2.115 2.364Zm7.822 0c-1.163 0-2.116-1.06-2.116-2.364 0-1.303.933-2.364 2.116-2.364 1.191 0 2.134 1.07 2.115 2.364 0 1.304-.924 2.364-2.115 2.364Z" fill="#D5C4A1"/>
</svg>
