<svg width="29" height="23" viewBox="0 0 29 23" fill="none" xmlns="http://www.w3.org/2000/svg">
<path d="M24.2341 2.16701C22.3995 1.32791 20.451 0.71635 18.4172 0.375019C18.1612 0.815911 17.8768 1.41324 17.6777 1.88257C15.5145 1.56968 13.3669 1.56968 11.2336 1.88257C11.0345 1.41324 10.7358 0.815911 10.494 0.375019C8.44604 0.71635 6.49759 1.32791 4.67573 2.16701C0.992183 7.59988 -0.00337499 12.9047 0.494402 18.1385C2.94062 19.9163 5.30153 20.9972 7.62117 21.7084C8.19006 20.9403 8.70207 20.1154 9.14296 19.2479C8.30384 18.935 7.5074 18.551 6.7394 18.0958C6.93851 17.9537 7.13763 17.7972 7.32252 17.6408C11.959 19.7599 16.9808 19.7599 21.5603 17.6408C21.7594 17.7972 21.9443 17.9537 22.1435 18.0958C21.3754 18.551 20.579 18.935 19.7399 19.2479C20.1808 20.1154 20.6928 20.9403 21.2616 21.7084C23.5799 20.9972 25.955 19.9163 28.3884 18.1385C28.9999 12.0799 27.4199 6.81772 24.2341 2.16701ZM9.78294 14.9101C8.38915 14.9101 7.25138 13.6443 7.25138 12.0941C7.25138 10.5439 8.36071 9.27809 9.78294 9.27809C11.1909 9.27809 12.3429 10.5439 12.3144 12.0941C12.3144 13.6443 11.1909 14.9101 9.78294 14.9101ZM19.1284 14.9101C17.7345 14.9101 16.5953 13.6443 16.5953 12.0941C16.5953 10.5439 17.7061 9.27809 19.1284 9.27809C20.5364 9.27809 21.6883 10.5439 21.6599 12.0941C21.6599 13.6443 20.5506 14.9101 19.1284 14.9101Z" fill="#928374" stroke="#928374" stroke-width="0.75" stroke-linejoin="round"/>
</svg>
