<svg width="16" height="16" viewBox="0 0 16 16" fill="none" xmlns="http://www.w3.org/2000/svg">
<g clip-path="url(#clip0_226_1123)">
<path d="M15 7.61112C15.0027 8.63769 14.7628 9.65036 14.3 10.5667C13.7512 11.6647 12.9076 12.5882 11.8636 13.2339C10.8195 13.8795 9.6164 14.2217 8.38888 14.2222C7.36231 14.2249 6.34964 13.9851 5.43333 13.5222L1 15L2.47778 10.5667C2.01494 9.65036 1.7751 8.63769 1.77778 7.61112C1.77825 6.3836 2.12047 5.18046 2.76611 4.13644C3.41175 3.09243 4.3353 2.24879 5.43333 1.70002C6.34964 1.23719 7.36231 0.997346 8.38888 1.00002H8.77777C10.3989 1.08946 11.9301 1.77372 13.0782 2.9218C14.2263 4.06987 14.9105 5.60108 15 7.22223V7.61112Z" stroke="#D79921" stroke-linecap="round" stroke-linejoin="round"/>
</g>
<defs>
<clipPath id="clip0_226_1123">
<rect width="16" height="16" fill="white"/>
</clipPath>
</defs>
</svg>
