<svg width="20" height="23" viewBox="0 0 20 23" fill="none" xmlns="http://www.w3.org/2000/svg">
<path d="M5.50018 3.20795L10.0002 5.80795L14.5002 3.20795M5.50018 18.788V13.5979L1.00018 10.9979M19.0002 10.9979L14.5002 13.5979V18.788M1.27018 5.95795L10.0002 11.0079L18.7302 5.95795M10.0002 21.0779V10.9979M19.0002 14.9979V6.99795C18.9998 6.64722 18.9072 6.30276 18.7317 5.99911C18.5562 5.69546 18.3039 5.44331 18.0002 5.26795L11.0002 1.26795C10.6961 1.09241 10.3513 1 10.0002 1C9.64911 1 9.30422 1.09241 9.00018 1.26795L2.00018 5.26795C1.69645 5.44331 1.44416 5.69546 1.26864 5.99911C1.09313 6.30276 1.00054 6.64722 1.00018 6.99795V14.9979C1.00054 15.3487 1.09313 15.6931 1.26864 15.9968C1.44416 16.3004 1.69645 16.5526 2.00018 16.7279L9.00018 20.7279C9.30422 20.9035 9.64911 20.9959 10.0002 20.9959C10.3513 20.9959 10.6961 20.9035 11.0002 20.7279L18.0002 16.7279C18.3039 16.5526 18.5562 16.3004 18.7317 15.9968C18.9072 15.6931 18.9998 15.3487 19.0002 14.9979Z" stroke="#504945" stroke-width="2" stroke-linecap="round" stroke-linejoin="round"/>
</svg>
