<svg width="16" height="16" viewBox="0 0 16 16" fill="none" xmlns="http://www.w3.org/2000/svg">
<path d="M9.8 4.19991C9.67784 4.32452 9.60942 4.49207 9.60942 4.66657C9.60942 4.84107 9.67784 5.00862 9.8 5.13324L10.8667 6.19991C10.9913 6.32206 11.1588 6.39048 11.3333 6.39048C11.5078 6.39048 11.6754 6.32206 11.8 6.19991L14.3133 3.68657C14.6486 4.42736 14.7501 5.25273 14.6043 6.05267C14.4585 6.85261 14.0725 7.58914 13.4975 8.16409C12.9226 8.73905 12.186 9.12513 11.3861 9.27088C10.5862 9.41663 9.76079 9.31513 9.02 8.97991L4.41333 13.5866C4.14811 13.8518 3.7884 14.0008 3.41333 14.0008C3.03826 14.0008 2.67854 13.8518 2.41333 13.5866C2.14811 13.3214 1.99911 12.9616 1.99911 12.5866C1.99911 12.2115 2.14811 11.8518 2.41333 11.5866L7.02 6.97991C6.68477 6.23911 6.58327 5.41375 6.72902 4.61381C6.87477 3.81387 7.26085 3.07734 7.83581 2.50239C8.41077 1.92743 9.14729 1.54135 9.94723 1.3956C10.7472 1.24985 11.5725 1.35135 12.3133 1.68657L9.80666 4.19324L9.8 4.19991Z" stroke="#689D6A" stroke-linecap="round" stroke-linejoin="round"/>
</svg>
